<?xml version="1.0" encoding="UTF-8" standalone="no"?>
<!-- Created using Karbon, part of Calligra: http://www.calligra.org/karbon -->

<svg
   xmlns:dc="http://purl.org/dc/elements/1.1/"
   xmlns:cc="http://creativecommons.org/ns#"
   xmlns:rdf="http://www.w3.org/1999/02/22-rdf-syntax-ns#"
   xmlns:svg="http://www.w3.org/2000/svg"
   xmlns="http://www.w3.org/2000/svg"
   xmlns:sodipodi="http://sodipodi.sourceforge.net/DTD/sodipodi-0.dtd"
   xmlns:inkscape="http://www.inkscape.org/namespaces/inkscape"
   width="1675pt"
   height="568.914pt"
   id="svg2"
   version="1.1"
   inkscape:version="0.91 r13725"
   sodipodi:docname="cando.svg">
  <metadata
     id="metadata172">
    <rdf:RDF>
      <cc:Work
         rdf:about="">
        <dc:format>image/svg+xml</dc:format>
        <dc:type
           rdf:resource="http://purl.org/dc/dcmitype/StillImage" />
      </cc:Work>
    </rdf:RDF>
  </metadata>
  <sodipodi:namedview
     pagecolor="#ffffff"
     bordercolor="#666666"
     borderopacity="1"
     objecttolerance="10"
     gridtolerance="10"
     guidetolerance="10"
     inkscape:pageopacity="0"
     inkscape:pageshadow="2"
     inkscape:window-width="1920"
     inkscape:window-height="1026"
     id="namedview170"
     showgrid="false"
     inkscape:zoom="1.2035821"
     inkscape:cx="991.0385"
     inkscape:cy="319.12077"
     inkscape:window-x="0"
     inkscape:window-y="0"
     inkscape:window-maximized="1"
     inkscape:current-layer="layer0" />
  <defs
     id="defs4" />
  <g
     id="layer0">
    <path
       id="shape0"
       transform="translate(-7.81245e-06, -3.02094e-06)"
       fill="#282828"
       stroke="#000000"
       stroke-width="0.08503951740"
       stroke-linecap="butt"
       stroke-linejoin="miter"
       stroke-miterlimit="2.00000000000"
       d="M77.192 702.081C63.2786 690.281 57.3159 659.604 65.2663 624.205C75.2043 577.007 69.2414 562.849 33.4645 551.049C-0.32476 539.249 -6.28759 527.45 5.63806 482.612C35.4521 366.977 39.4274 296.18 15.5761 263.143C-14.2379 220.665 3.65044 156.948 45.3902 156.948C71.2292 156.948 75.2043 142.788 65.2663 86.1518C55.3283 34.2344 59.3035 10.6355 83.1546 1.19594C112.969 -12.9634 353.469 102.671 353.469 133.35C353.469 140.43 385.271 166.388 425.023 187.627L496.578 227.745L552.229 156.948L607.882 86.1518L1045.16 86.1518C1506.28 86.1518 1510.25 86.1518 1563.93 197.067C1577.84 230.105 1603.68 220.665 1744.8 123.91C1834.24 62.5529 1931.62 10.6355 1959.46 8.27558C2007.16 3.55582 2013.11 10.6355 2011.14 81.432C2007.16 140.43 2015.1 156.948 2042.94 156.948C2098.57 156.948 2108.52 194.707 2072.75 274.942C2046.91 336.299 2044.94 355.179 2068.77 421.255C2100.57 513.29 2092.62 558.127 2044.94 558.127C2017.1 558.127 2011.14 572.287 2019.09 626.565C2023.06 664.323 2017.1 702.081 2005.17 709.161C1981.31 728.039 1772.63 614.766 1655.36 520.37C1597.71 475.532 1575.85 466.094 1567.9 489.691C1563.93 506.211 1540.07 543.97 1514.23 574.647C1468.5 628.924 1460.57 628.924 1045.16 628.924C595.957 628.924 570.119 621.844 520.428 506.211C504.528 470.812 492.602 473.172 403.16 539.249C260.052 645.444 105.018 720.961 77.192 702.081ZM387.259 447.214C444.9 402.375 488.627 355.179 482.663 343.379C464.776 310.34 268.003 164.027 216.324 145.148C172.598 128.629 170.61 133.35 182.535 189.987C192.474 241.904 188.498 251.343 150.733 251.343C110.981 251.343 105.018 263.143 103.031 357.537C101.043 454.292 105.018 463.732 150.733 463.732C186.51 463.732 196.449 473.172 186.51 501.492C180.546 522.73 178.561 548.689 186.51 560.487C198.436 584.087 240.175 560.487 387.259 447.214ZM1945.55 463.732C1977.34 463.732 1983.3 447.214 1983.3 357.537C1983.3 267.862 1977.34 251.343 1943.55 251.343C1913.75 251.343 1903.8 234.824 1903.8 192.347C1903.8 159.308 1897.84 133.35 1889.88 133.35C1870.03 133.35 1609.64 319.78 1595.73 343.379C1589.76 355.179 1641.44 407.095 1709.01 459.014C1873.99 581.727 1891.88 586.446 1899.83 518.01C1903.8 482.612 1919.71 463.732 1945.55 463.732ZM1436.72 499.131C1502.3 423.615 1504.29 289.102 1442.68 211.226C1400.94 159.308 1390.99 156.948 1049.13 156.948C627.76 156.948 611.857 164.027 611.857 355.179C611.857 548.689 627.76 555.769 1045.16 555.769C1385.03 558.127 1389.02 558.127 1436.72 499.131Z" />
    <path
       id="shape1"
       transform="matrix(0.0104167 0 0 0.01 65.6243 89.5751)"
       fill="#9f77a9"
       stroke="#000000"
       stroke-width="0.08503951740"
       stroke-linecap="butt"
       stroke-linejoin="miter"
       stroke-miterlimit="2.00000000000"
       d="M9790.12 51451.9C8862.14 50019 9094.13 46866.5 9790.12 44287.1C10950.1 40848 9790.12 39701.6 5614.18 39701.6C278.248 39701.6 -185.746 38555.3 46.2505 26804.9C278.248 15341.2 974.239 13908.3 5614.18 13908.3C10022.1 13908.3 10486.1 12761.9 9326.13 6456.85C7934.15 -421.378 8166.14 -994.564 13270.1 1011.58C19302 3304.33 42269.7 21073.1 44357.7 25085.4C45053.7 26518.4 39949.7 32250.2 33221.8 37695.5C16054 51451.9 11182.1 54317.9 9790.12 51451.9Z" />
    <path
       id="shape2"
       transform="matrix(0.0104167 0 0 0.01 573.744 140.623)"
       fill="#9f77a9"
       stroke="#000000"
       stroke-width="0.08503951740"
       stroke-linecap="butt"
       stroke-linejoin="miter"
       stroke-miterlimit="2.00000000000"
       d="M4764.38 39151.9C828.588 35825.3 0 32754.6 0 21495.2C0 767.685 1657.18 0 45572.3 0C81201.6 0 82237.3 255.895 86587.4 5885.59C93009 14330.1 92801.8 28916.1 85966 37104.8C80994.5 43502.2 80580.2 43502.2 45158 43246.3C16157.5 43246.3 8493.03 42478.6 4764.38 39151.9Z" />
    <path
       id="shape3"
       transform="matrix(0.0104167 0 0 0.01 1559.98 97.1648)"
       fill="#9f77a9"
       stroke="#000000"
       stroke-width="0.08503951740"
       stroke-linecap="butt"
       stroke-linejoin="miter"
       stroke-miterlimit="2.00000000000"
       d="M30791.4 51011.4C23274.1 47928.3 -1100.37 27467.7 38.6206 24945.1C1633.21 22142.3 31474.8 0 33752.8 0C34664 0 35347.4 3083.11 35347.4 7007.06C35347.4 12052.1 36486.4 14014.1 39903.4 14014.1C43776 14014.1 44459.4 15976.1 44459.4 26626.8C44459.4 37277.6 43776 39239.6 40131.2 39239.6C37169.8 39239.6 35347.4 41481.8 34891.8 45686.1C34436.2 50170.6 33069.4 51852.3 30791.4 51011.4Z" />
    <path
       id="shape4"
       transform="translate(1794.36, 123.749)"
       fill="#ffffff"
       fill-rule="evenodd"
       stroke="#000000"
       stroke-width="0.08503951740"
       stroke-linecap="butt"
       stroke-linejoin="miter"
       stroke-miterlimit="2.00000000000"
       d="M65.4896 0L65.4896 470.62L65.077 470.456L62.3483 469.252L59.4926 467.879L56.5067 466.337L53.3874 464.623L50.1312 462.736L46.735 460.676L43.1953 458.441L39.5091 456.03L35.6729 453.441L31.6834 450.674L27.5374 447.727L23.2316 444.598L18.7627 441.288L14.1273 437.793L9.3223 434.114L4.34429 430.249L0 426.834L0 49.4413L1.29087 48.4229L7.45912 43.5838L13.5208 38.8565L19.4644 34.2506L25.278 29.7756L30.9501 25.4413L36.4689 21.2571L41.8227 17.2328L46.9999 13.3779L51.9888 9.7021L56.7777 6.21492L61.3549 2.92601L65.4896 0" />
    <path
       id="shape6"
       transform="matrix(-1 0 0 1 304.731 112.499)"
       fill="#ffffff"
       fill-rule="evenodd"
       stroke="#000000"
       stroke-width="0.08503951740"
       stroke-linecap="butt"
       stroke-linejoin="miter"
       stroke-miterlimit="2.00000000000"
       d="M65.9837 0L65.9837 476.871L65.568 476.705L62.8187 475.485L59.9414 474.094L56.933 472.53L53.7902 470.793L50.5094 468.882L47.0876 466.795L43.5213 464.53L39.8071 462.087L35.942 459.464L31.9224 456.66L27.7452 453.673L23.4069 450.504L18.9042 447.149L14.2339 443.609L9.39262 439.88L4.37706 435.964L0 432.503L0 50.098L1.30061 49.0661L7.51539 44.1628L13.6229 39.3727L19.6113 34.7055L25.4687 30.1712L31.1835 25.7791L36.744 21.5395L42.1382 17.4617L47.3544 13.5557L52.381 9.83097L57.2061 6.29747L61.8178 2.96487L65.9837 0" />
    <path
       id="shape01"
       transform="translate(699.931, 175.643)"
       fill="#000000"
       stroke="#000000"
       stroke-width="53.14969837500"
       stroke-linecap="square"
       stroke-linejoin="miter"
       stroke-miterlimit="1.98425540600"
       d="M389.334 209.103C408.035 236.859 429.726 257.753 454.411 271.786C479.469 285.507 507.706 292.371 539.122 292.371C576.895 292.371 607.752 281.923 631.688 261.028C655.624 239.819 667.592 212.844 667.592 180.099C667.592 148.602 656.558 122.406 634.492 101.511C612.426 80.6161 584.75 70.1687 551.464 70.1684C521.171 70.1687 493.682 80.6161 468.997 101.511C444.687 122.094 418.134 157.957 389.334 209.103M320.893 159.048C302.568 131.605 280.876 111.023 255.817 97.3003C231.134 83.5787 202.897 76.7179 171.105 76.7174C133.331 76.7179 102.476 87.1651 78.5404 108.059C54.6039 128.643 42.636 155.307 42.6363 188.052C42.636 219.549 53.6689 245.746 75.7353 266.641C97.8006 287.534 125.478 297.982 158.763 297.982C189.057 297.982 216.358 287.69 240.67 267.107C265.354 246.524 292.094 210.506 320.893 159.048M360.724 244.653C334.169 287.067 306.305 318.098 277.136 337.744C248.337 357.392 216.172 367.214 180.642 367.214C130.152 367.214 87.3291 349.75 52.1733 314.823C17.3909 279.894 -0.000122552 236.702 7.2572e-10 185.244C-0.000122552 130.67 15.521 86.5413 46.5631 52.8602C77.9792 19.1799 118.745 2.33941 168.862 2.33894C204.392 2.33941 236.181 12.0071 264.233 31.342C292.281 50.3658 320.332 81.8636 348.383 125.835C373.814 82.7992 401.303 51.1455 430.849 30.8742C460.396 10.2918 493.307 0.000470499 529.585 0C579.327 0.000470499 621.777 17.6205 656.933 52.8602C692.461 88.101 710.228 131.605 710.228 183.374C710.228 237.637 694.52 281.611 663.105 315.292C632.062 348.661 591.481 365.343 541.367 365.343C505.836 365.343 474.232 356.3 446.556 338.213C419.255 319.813 390.643 288.627 360.724 244.653"
       style="fill:#141414;fill-opacity:1;stroke:#141414;stroke-opacity:1" />
    <g
       id="group0"
       transform="translate(1297.61, 263.288)"
       fill="none">
      <path
         id="shape21"
         transform="translate(12.5261, 19.2411)"
         fill="#fcf0f0"
         fill-rule="evenodd"
         stroke="#000000"
         stroke-width="1.25000000000"
         stroke-linecap="square"
         stroke-linejoin="miter"
         stroke-miterlimit="2.00000000000"
         d="M157.927 78.9637C157.927 35.3533 122.574 2.67037e-15 78.9637 0C35.3533 -2.67037e-15 5.34074e-15 35.3533 0 78.9637C-5.34074e-15 122.574 35.3533 157.927 78.9637 157.927C122.574 157.927 157.927 122.574 157.927 78.9637" />
      <g
         id="g16"
         transform="translate(26.8869, 38.182)"
         fill="none">
        <g
           id="group19"
           transform="translate(0, 81.0027)"
           fill="none">
          <path
             id="path19"
             transform="translate(9.40856, 16.1236)"
             fill="#73acd0"
             stroke="#ffffff"
             stroke-width="0.00750000000"
             stroke-linecap="butt"
             stroke-linejoin="round"
             d="M0 8.78337L11.7773 8.78337L11.7773 0L0 0ZM0 8.78337" />
        </g>
        <g
           id="group20"
           transform="translate(0, 72.0705)"
           fill="none">
          <path
             id="shape11"
             transform="translate(9.40856, 16.1236)"
             fill="#313795"
             stroke="#ffffff"
             stroke-width="0.00750000000"
             stroke-linecap="butt"
             stroke-linejoin="round"
             d="M0 8.78337L11.7773 8.78337L11.7773 0L0 0ZM0 8.78337" />
        </g>
        <g
           id="group21"
           transform="translate(0, 63.1387)"
           fill="none">
          <path
             id="path24"
             transform="translate(9.40856, 16.1236)"
             fill="#80b7d6"
             stroke="#ffffff"
             stroke-width="0.00750000000"
             stroke-linecap="butt"
             stroke-linejoin="round"
             d="M0 8.78337L11.7773 8.78337L11.7773 0L0 0ZM0 8.78337" />
        </g>
        <g
           id="group22"
           transform="translate(0, 54.2079)"
           fill="none">
          <path
             id="shape31"
             transform="translate(9.40856, 16.1236)"
             fill="#73acd0"
             stroke="#ffffff"
             stroke-width="0.00750000000"
             stroke-linecap="butt"
             stroke-linejoin="round"
             d="M0 8.78337L11.7773 8.78337L11.7773 0L0 0ZM0 8.78337" />
        </g>
        <g
           id="group23"
           transform="translate(0, 45.2763)"
           fill="none">
          <path
             id="shape41"
             transform="translate(9.40856, 16.1236)"
             fill="#6296c6"
             stroke="#ffffff"
             stroke-width="0.00750000000"
             stroke-linecap="butt"
             stroke-linejoin="round"
             d="M0 8.78337L11.7773 8.78337L11.7773 0L0 0ZM0 8.78337" />
        </g>
        <g
           id="group24"
           transform="translate(0, 36.3445)"
           fill="none">
          <path
             id="shape5"
             transform="translate(9.40856, 16.1236)"
             fill="#4b7ab7"
             stroke="#ffffff"
             stroke-width="0.00750000000"
             stroke-linecap="butt"
             stroke-linejoin="round"
             d="M0 8.78337L11.7773 8.78337L11.7773 0L0 0ZM0 8.78337" />
        </g>
        <g
           id="group25"
           transform="translate(0, 27.4127)"
           fill="none">
          <path
             id="shape61"
             transform="translate(9.40856, 16.1236)"
             fill="#4061aa"
             stroke="#ffffff"
             stroke-width="0.00750000000"
             stroke-linecap="butt"
             stroke-linejoin="round"
             d="M0 8.78337L11.7773 8.78337L11.7773 0L0 0ZM0 8.78337" />
        </g>
        <g
           id="group26"
           transform="translate(0, 18.4805)"
           fill="none">
          <path
             id="shape7"
             transform="translate(9.40856, 16.1236)"
             fill="#5a8cc0"
             stroke="#ffffff"
             stroke-width="0.00750000000"
             stroke-linecap="butt"
             stroke-linejoin="round"
             d="M0 8.78337L11.7773 8.78337L11.7773 0L0 0ZM0 8.78337" />
        </g>
        <g
           id="group27"
           transform="translate(0, 9.54868)"
           fill="none">
          <path
             id="shape8"
             transform="translate(9.40856, 16.1236)"
             fill="#9fcfe4"
             stroke="#ffffff"
             stroke-width="0.00750000000"
             stroke-linecap="butt"
             stroke-linejoin="round"
             d="M0 8.78337L11.7773 8.78337L11.7773 0L0 0ZM0 8.78337" />
        </g>
        <g
           id="group28"
           transform="translate(0, 0.617015)"
           fill="none">
          <path
             id="shape9"
             transform="translate(9.40856, 16.1236)"
             fill="#a3d1e5"
             stroke="#ffffff"
             stroke-width="0.00750000000"
             stroke-linecap="butt"
             stroke-linejoin="round"
             d="M0 8.78337L11.7773 8.78337L11.7773 0L0 0ZM0 8.78337" />
        </g>
        <path
           id="shape10"
           transform="translate(21.8061, 97.1271)"
           fill="#313795"
           stroke="#ffffff"
           stroke-width="0.00750000000"
           stroke-linecap="butt"
           stroke-linejoin="round"
           d="M0 8.78337L11.7773 8.78337L11.7773 0L0 0ZM0 8.78337" />
        <path
           id="shape111"
           transform="translate(21.8061, 88.1941)"
           fill="#4b7ab7"
           stroke="#ffffff"
           stroke-width="0.00750000000"
           stroke-linecap="butt"
           stroke-linejoin="round"
           d="M0 8.78337L11.7773 8.78337L11.7773 0L0 0ZM0 8.78337" />
        <path
           id="shape12"
           transform="translate(21.8061, 79.2631)"
           fill="#3d53a3"
           stroke="#ffffff"
           stroke-width="0.00750000000"
           stroke-linecap="butt"
           stroke-linejoin="round"
           d="M0 8.78337L11.7773 8.78337L11.7773 0L0 0ZM0 8.78337" />
        <path
           id="shape13"
           transform="translate(21.8061, 70.3311)"
           fill="#313795"
           stroke="#ffffff"
           stroke-width="0.00750000000"
           stroke-linecap="butt"
           stroke-linejoin="round"
           d="M0 8.78337L11.7773 8.78337L11.7773 0L0 0ZM0 8.78337" />
        <path
           id="shape14"
           transform="translate(21.8061, 61.4001)"
           fill="#699dc9"
           stroke="#ffffff"
           stroke-width="0.00750000000"
           stroke-linecap="butt"
           stroke-linejoin="round"
           d="M0 8.78337L11.7773 8.78337L11.7773 0L0 0ZM0 8.78337" />
        <path
           id="shape15"
           transform="translate(21.8061, 52.4681)"
           fill="#303695"
           stroke="#ffffff"
           stroke-width="0.00750000000"
           stroke-linecap="butt"
           stroke-linejoin="round"
           d="M0 8.78337L11.7773 8.78337L11.7773 0L0 0ZM0 8.78337" />
        <path
           id="shape16"
           transform="translate(21.8061, 43.5361)"
           fill="#303695"
           stroke="#ffffff"
           stroke-width="0.00750000000"
           stroke-linecap="butt"
           stroke-linejoin="round"
           d="M0 8.78337L11.7773 8.78337L11.7773 0L0 0ZM0 8.78337" />
        <path
           id="shape17"
           transform="translate(21.8061, 34.6041)"
           fill="#3f61aa"
           stroke="#ffffff"
           stroke-width="0.00750000000"
           stroke-linecap="butt"
           stroke-linejoin="round"
           d="M0 8.78337L11.7773 8.78337L11.7773 0L0 0ZM0 8.78337" />
        <path
           id="shape18"
           transform="translate(21.8061, 25.6731)"
           fill="#37459c"
           stroke="#ffffff"
           stroke-width="0.00750000000"
           stroke-linecap="butt"
           stroke-linejoin="round"
           d="M0 8.78337L11.7773 8.78337L11.7773 0L0 0ZM0 8.78337" />
        <g
           id="group29"
           transform="translate(12.3975, 0.617015)"
           fill="none">
          <path
             id="shape19"
             transform="translate(9.40856, 16.1236)"
             fill="#37459c"
             stroke="#ffffff"
             stroke-width="0.00750000000"
             stroke-linecap="butt"
             stroke-linejoin="round"
             d="M0 8.78337L11.7773 8.78337L11.7773 0L0 0ZM0 8.78337" />
        </g>
        <path
           id="shape20"
           transform="translate(34.2036, 97.1271)"
           fill="#303695"
           stroke="#ffffff"
           stroke-width="0.00750000000"
           stroke-linecap="butt"
           stroke-linejoin="round"
           d="M0 8.78337L11.7773 8.78337L11.7773 0L0 0ZM0 8.78337" />
        <path
           id="shape211"
           transform="translate(34.2036, 88.1941)"
           fill="#3e5aa6"
           stroke="#ffffff"
           stroke-width="0.00750000000"
           stroke-linecap="butt"
           stroke-linejoin="round"
           d="M0 8.78337L11.7773 8.78337L11.7773 0L0 0ZM0 8.78337" />
        <path
           id="shape22"
           transform="translate(34.2036, 79.2631)"
           fill="#6fa5cd"
           stroke="#ffffff"
           stroke-width="0.00750000000"
           stroke-linecap="butt"
           stroke-linejoin="round"
           d="M0 8.78337L11.7773 8.78337L11.7773 0L0 0ZM0 8.78337" />
        <path
           id="shape23"
           transform="translate(34.2036, 70.3311)"
           fill="#6aa2ca"
           stroke="#ffffff"
           stroke-width="0.00750000000"
           stroke-linecap="butt"
           stroke-linejoin="round"
           d="M0 8.78337L11.7773 8.78337L11.7773 0L0 0ZM0 8.78337" />
        <path
           id="shape24"
           transform="translate(34.2036, 61.4001)"
           fill="#303695"
           stroke="#ffffff"
           stroke-width="0.00750000000"
           stroke-linecap="butt"
           stroke-linejoin="round"
           d="M0 8.78337L11.7773 8.78337L11.7773 0L0 0ZM0 8.78337" />
        <path
           id="shape25"
           transform="translate(34.2036, 52.4681)"
           fill="#37459c"
           stroke="#ffffff"
           stroke-width="0.00750000000"
           stroke-linecap="butt"
           stroke-linejoin="round"
           d="M0 8.78337L11.7773 8.78337L11.7773 0L0 0ZM0 8.78337" />
        <path
           id="shape26"
           transform="translate(34.2036, 43.5361)"
           fill="#3c51a3"
           stroke="#ffffff"
           stroke-width="0.00750000000"
           stroke-linecap="butt"
           stroke-linejoin="round"
           d="M0 8.78337L11.7773 8.78337L11.7773 0L0 0ZM0 8.78337" />
        <path
           id="shape27"
           transform="translate(34.2036, 34.6041)"
           fill="#4a79b7"
           stroke="#ffffff"
           stroke-width="0.00750000000"
           stroke-linecap="butt"
           stroke-linejoin="round"
           d="M0 8.78337L11.7773 8.78337L11.7773 0L0 0ZM0 8.78337" />
        <path
           id="shape28"
           transform="translate(34.2036, 25.6731)"
           fill="#303695"
           stroke="#ffffff"
           stroke-width="0.00750000000"
           stroke-linecap="butt"
           stroke-linejoin="round"
           d="M0 8.78337L11.7773 8.78337L11.7773 0L0 0ZM0 8.78337" />
        <g
           id="group30"
           transform="translate(24.7951, 0.617015)"
           fill="none">
          <path
             id="shape29"
             transform="translate(9.40856, 16.1236)"
             fill="#303695"
             stroke="#ffffff"
             stroke-width="0.00750000000"
             stroke-linecap="butt"
             stroke-linejoin="round"
             d="M0 8.78337L11.7773 8.78337L11.7773 0L0 0ZM0 8.78337" />
        </g>
        <path
           id="shape30"
           transform="translate(46.6012, 97.1271)"
           fill="#36429b"
           stroke="#ffffff"
           stroke-width="0.00750000000"
           stroke-linecap="butt"
           stroke-linejoin="round"
           d="M0 8.78337L11.7773 8.78337L11.7773 0L0 0ZM0 8.78337" />
        <path
           id="shape311"
           transform="translate(46.6012, 88.1941)"
           fill="#353f9a"
           stroke="#ffffff"
           stroke-width="0.00750000000"
           stroke-linecap="butt"
           stroke-linejoin="round"
           d="M0 8.78337L11.7773 8.78337L11.7773 0L0 0ZM0 8.78337" />
        <path
           id="shape32"
           transform="translate(46.6012, 79.2631)"
           fill="#6093c3"
           stroke="#ffffff"
           stroke-width="0.00750000000"
           stroke-linecap="butt"
           stroke-linejoin="round"
           d="M0 8.78337L11.7773 8.78337L11.7773 0L0 0ZM0 8.78337" />
        <path
           id="shape33"
           transform="translate(46.6012, 70.3311)"
           fill="#92c3de"
           stroke="#ffffff"
           stroke-width="0.00750000000"
           stroke-linecap="butt"
           stroke-linejoin="round"
           d="M0 8.78337L11.7773 8.78337L11.7773 0L0 0ZM0 8.78337" />
        <path
           id="shape34"
           transform="translate(46.6012, 61.4001)"
           fill="#303695"
           stroke="#ffffff"
           stroke-width="0.00750000000"
           stroke-linecap="butt"
           stroke-linejoin="round"
           d="M0 8.78337L11.7773 8.78337L11.7773 0L0 0ZM0 8.78337" />
        <path
           id="shape35"
           transform="translate(46.6012, 52.4681)"
           fill="#37459c"
           stroke="#ffffff"
           stroke-width="0.00750000000"
           stroke-linecap="butt"
           stroke-linejoin="round"
           d="M0 8.78337L11.7773 8.78337L11.7773 0L0 0ZM0 8.78337" />
        <path
           id="shape36"
           transform="translate(46.6012, 43.5361)"
           fill="#303695"
           stroke="#ffffff"
           stroke-width="0.00750000000"
           stroke-linecap="butt"
           stroke-linejoin="round"
           d="M0 8.78337L11.7773 8.78337L11.7773 0L0 0ZM0 8.78337" />
        <path
           id="shape37"
           transform="translate(46.6012, 34.6041)"
           fill="#36439c"
           stroke="#ffffff"
           stroke-width="0.00750000000"
           stroke-linecap="butt"
           stroke-linejoin="round"
           d="M0 8.78337L11.7773 8.78337L11.7773 0L0 0ZM0 8.78337" />
        <path
           id="shape38"
           transform="translate(46.6012, 25.6731)"
           fill="#394c9f"
           stroke="#ffffff"
           stroke-width="0.00750000000"
           stroke-linecap="butt"
           stroke-linejoin="round"
           d="M0 8.78337L11.7773 8.78337L11.7773 0L0 0ZM0 8.78337" />
        <g
           id="group31"
           transform="translate(37.1927, 0.617015)"
           fill="none">
          <path
             id="shape39"
             transform="translate(9.40856, 16.1236)"
             fill="#3d58a5"
             stroke="#ffffff"
             stroke-width="0.00750000000"
             stroke-linecap="butt"
             stroke-linejoin="round"
             d="M0 8.78337L11.7773 8.78337L11.7773 0L0 0ZM0 8.78337" />
        </g>
        <path
           id="shape40"
           transform="translate(58.9987, 97.1271)"
           fill="#4978b5"
           stroke="#ffffff"
           stroke-width="0.00750000000"
           stroke-linecap="butt"
           stroke-linejoin="round"
           d="M0 8.78337L11.7773 8.78337L11.7773 0L0 0ZM0 8.78337" />
        <path
           id="shape411"
           transform="translate(58.9987, 88.1941)"
           fill="#303695"
           stroke="#ffffff"
           stroke-width="0.00750000000"
           stroke-linecap="butt"
           stroke-linejoin="round"
           d="M0 8.78337L11.7773 8.78337L11.7773 0L0 0ZM0 8.78337" />
        <path
           id="shape42"
           transform="translate(58.9987, 79.2631)"
           fill="#5587be"
           stroke="#ffffff"
           stroke-width="0.00750000000"
           stroke-linecap="butt"
           stroke-linejoin="round"
           d="M0 8.78337L11.7773 8.78337L11.7773 0L0 0ZM0 8.78337" />
        <path
           id="shape43"
           transform="translate(58.9987, 70.3311)"
           fill="#333b97"
           stroke="#ffffff"
           stroke-width="0.00750000000"
           stroke-linecap="butt"
           stroke-linejoin="round"
           d="M0 8.78337L11.7773 8.78337L11.7773 0L0 0ZM0 8.78337" />
        <path
           id="shape44"
           transform="translate(58.9987, 61.4001)"
           fill="#36429b"
           stroke="#ffffff"
           stroke-width="0.00750000000"
           stroke-linecap="butt"
           stroke-linejoin="round"
           d="M0 8.78337L11.7773 8.78337L11.7773 0L0 0ZM0 8.78337" />
        <path
           id="shape45"
           transform="translate(58.9987, 52.4681)"
           fill="#353d99"
           stroke="#ffffff"
           stroke-width="0.00750000000"
           stroke-linecap="butt"
           stroke-linejoin="round"
           d="M0 8.78337L11.7773 8.78337L11.7773 0L0 0ZM0 8.78337" />
        <path
           id="shape46"
           transform="translate(58.9987, 43.5361)"
           fill="#38479d"
           stroke="#ffffff"
           stroke-width="0.00750000000"
           stroke-linecap="butt"
           stroke-linejoin="round"
           d="M0 8.78337L11.7773 8.78337L11.7773 0L0 0ZM0 8.78337" />
        <path
           id="shape47"
           transform="translate(58.9987, 34.6041)"
           fill="#303695"
           stroke="#ffffff"
           stroke-width="0.00750000000"
           stroke-linecap="butt"
           stroke-linejoin="round"
           d="M0 8.78337L11.7773 8.78337L11.7773 0L0 0ZM0 8.78337" />
        <path
           id="shape48"
           transform="translate(58.9987, 25.6731)"
           fill="#3b4ea1"
           stroke="#ffffff"
           stroke-width="0.00750000000"
           stroke-linecap="butt"
           stroke-linejoin="round"
           d="M0 8.78337L11.7773 8.78337L11.7773 0L0 0ZM0 8.78337" />
        <g
           id="group32"
           transform="translate(49.5902, 0.617015)"
           fill="none">
          <path
             id="shape49"
             transform="translate(9.40856, 16.1236)"
             fill="#303695"
             stroke="#ffffff"
             stroke-width="0.00750000000"
             stroke-linecap="butt"
             stroke-linejoin="round"
             d="M0 8.78337L11.7773 8.78337L11.7773 0L0 0ZM0 8.78337" />
        </g>
        <path
           id="shape50"
           transform="translate(71.3963, 97.1271)"
           fill="#303695"
           stroke="#ffffff"
           stroke-width="0.00750000000"
           stroke-linecap="butt"
           stroke-linejoin="round"
           d="M0 8.78337L11.7773 8.78337L11.7773 0L0 0ZM0 8.78337" />
        <path
           id="shape51"
           transform="translate(71.3963, 88.1941)"
           fill="#303695"
           stroke="#ffffff"
           stroke-width="0.00750000000"
           stroke-linecap="butt"
           stroke-linejoin="round"
           d="M0 8.78337L11.7773 8.78337L11.7773 0L0 0ZM0 8.78337" />
        <path
           id="shape52"
           transform="translate(71.3963, 79.2631)"
           fill="#5587be"
           stroke="#ffffff"
           stroke-width="0.00750000000"
           stroke-linecap="butt"
           stroke-linejoin="round"
           d="M0 8.78337L11.7773 8.78337L11.7773 0L0 0ZM0 8.78337" />
        <path
           id="shape53"
           transform="translate(71.3963, 70.3311)"
           fill="#333b97"
           stroke="#ffffff"
           stroke-width="0.00750000000"
           stroke-linecap="butt"
           stroke-linejoin="round"
           d="M0 8.78337L11.7773 8.78337L11.7773 0L0 0ZM0 8.78337" />
        <path
           id="shape54"
           transform="translate(71.3963, 61.4001)"
           fill="#303695"
           stroke="#ffffff"
           stroke-width="0.00750000000"
           stroke-linecap="butt"
           stroke-linejoin="round"
           d="M0 8.78337L11.7773 8.78337L11.7773 0L0 0ZM0 8.78337" />
        <path
           id="shape55"
           transform="translate(71.3963, 52.4681)"
           fill="#4978b5"
           stroke="#ffffff"
           stroke-width="0.00750000000"
           stroke-linecap="butt"
           stroke-linejoin="round"
           d="M0 8.78337L11.7773 8.78337L11.7773 0L0 0ZM0 8.78337" />
        <path
           id="shape56"
           transform="translate(71.3963, 43.5361)"
           fill="#446eb1"
           stroke="#ffffff"
           stroke-width="0.00750000000"
           stroke-linecap="butt"
           stroke-linejoin="round"
           d="M0 8.78337L11.7773 8.78337L11.7773 0L0 0ZM0 8.78337" />
        <path
           id="shape57"
           transform="translate(71.3963, 34.6041)"
           fill="#394c9f"
           stroke="#ffffff"
           stroke-width="0.00750000000"
           stroke-linecap="butt"
           stroke-linejoin="round"
           d="M0 8.78337L11.7773 8.78337L11.7773 0L0 0ZM0 8.78337" />
        <path
           id="shape58"
           transform="translate(71.3963, 25.6731)"
           fill="#3f5da9"
           stroke="#ffffff"
           stroke-width="0.00750000000"
           stroke-linecap="butt"
           stroke-linejoin="round"
           d="M0 8.78337L11.7773 8.78337L11.7773 0L0 0ZM0 8.78337" />
        <g
           id="group33"
           transform="translate(61.9876, 0.617015)"
           fill="none">
          <path
             id="shape59"
             transform="translate(9.40856, 16.1236)"
             fill="#38479d"
             stroke="#ffffff"
             stroke-width="0.00750000000"
             stroke-linecap="butt"
             stroke-linejoin="round"
             d="M0 8.78337L11.7773 8.78337L11.7773 0L0 0ZM0 8.78337" />
        </g>
        <path
           id="shape60"
           transform="translate(83.793, 97.1271)"
           fill="#436bb0"
           stroke="#ffffff"
           stroke-width="0.00750000000"
           stroke-linecap="butt"
           stroke-linejoin="round"
           d="M0 8.78337L11.7773 8.78337L11.7773 0L0 0ZM0 8.78337" />
        <path
           id="shape611"
           transform="translate(83.793, 88.1941)"
           fill="#4572b2"
           stroke="#ffffff"
           stroke-width="0.00750000000"
           stroke-linecap="butt"
           stroke-linejoin="round"
           d="M0 8.78337L11.7773 8.78337L11.7773 0L0 0ZM0 8.78337" />
        <path
           id="shape62"
           transform="translate(83.793, 79.2631)"
           fill="#80b7d6"
           stroke="#ffffff"
           stroke-width="0.00750000000"
           stroke-linecap="butt"
           stroke-linejoin="round"
           d="M0 8.78337L11.7773 8.78337L11.7773 0L0 0ZM0 8.78337" />
        <path
           id="shape63"
           transform="translate(83.793, 70.3311)"
           fill="#73acd0"
           stroke="#ffffff"
           stroke-width="0.00750000000"
           stroke-linecap="butt"
           stroke-linejoin="round"
           d="M0 8.78337L11.7773 8.78337L11.7773 0L0 0ZM0 8.78337" />
        <path
           id="shape64"
           transform="translate(83.793, 61.4001)"
           fill="#37479d"
           stroke="#ffffff"
           stroke-width="0.00750000000"
           stroke-linecap="butt"
           stroke-linejoin="round"
           d="M0 8.78337L11.7773 8.78337L11.7773 0L0 0ZM0 8.78337" />
        <path
           id="shape65"
           transform="translate(83.793, 52.4681)"
           fill="#78b1d2"
           stroke="#ffffff"
           stroke-width="0.00750000000"
           stroke-linecap="butt"
           stroke-linejoin="round"
           d="M0 8.78337L11.7773 8.78337L11.7773 0L0 0ZM0 8.78337" />
        <path
           id="shape66"
           transform="translate(83.793, 43.5361)"
           fill="#5c8fc1"
           stroke="#ffffff"
           stroke-width="0.00750000000"
           stroke-linecap="butt"
           stroke-linejoin="round"
           d="M0 8.78337L11.7773 8.78337L11.7773 0L0 0ZM0 8.78337" />
        <path
           id="shape67"
           transform="translate(83.793, 34.6041)"
           fill="#5282bb"
           stroke="#ffffff"
           stroke-width="0.00750000000"
           stroke-linecap="butt"
           stroke-linejoin="round"
           d="M0 8.78337L11.7773 8.78337L11.7773 0L0 0ZM0 8.78337" />
        <path
           id="shape68"
           transform="translate(83.793, 25.6731)"
           fill="#5f92c2"
           stroke="#ffffff"
           stroke-width="0.00750000000"
           stroke-linecap="butt"
           stroke-linejoin="round"
           d="M0 8.78337L11.7773 8.78337L11.7773 0L0 0ZM0 8.78337" />
        <g
           id="group34"
           transform="translate(74.3843, 0.617015)"
           fill="none">
          <path
             id="shape69"
             transform="translate(9.40856, 16.1236)"
             fill="#4572b2"
             stroke="#ffffff"
             stroke-width="0.00750000000"
             stroke-linecap="butt"
             stroke-linejoin="round"
             d="M0 8.78337L11.7773 8.78337L11.7773 0L0 0ZM0 8.78337" />
        </g>
        <path
           id="shape70"
           transform="translate(96.1904, 97.1271)"
           fill="#5486bc"
           stroke="#ffffff"
           stroke-width="0.00750000000"
           stroke-linecap="butt"
           stroke-linejoin="round"
           d="M0 8.78337L11.7773 8.78337L11.7773 0L0 0ZM0 8.78337" />
        <path
           id="shape71"
           transform="translate(96.1904, 88.1941)"
           fill="#4979b5"
           stroke="#ffffff"
           stroke-width="0.00750000000"
           stroke-linecap="butt"
           stroke-linejoin="round"
           d="M0 8.78337L11.7773 8.78337L11.7773 0L0 0ZM0 8.78337" />
        <path
           id="shape72"
           transform="translate(96.1904, 79.2631)"
           fill="#303695"
           stroke="#ffffff"
           stroke-width="0.00750000000"
           stroke-linecap="butt"
           stroke-linejoin="round"
           d="M0 8.78337L11.7773 8.78337L11.7773 0L0 0ZM0 8.78337" />
        <path
           id="shape73"
           transform="translate(96.1904, 70.3311)"
           fill="#3e5aa6"
           stroke="#ffffff"
           stroke-width="0.00750000000"
           stroke-linecap="butt"
           stroke-linejoin="round"
           d="M0 8.78337L11.7773 8.78337L11.7773 0L0 0ZM0 8.78337" />
        <path
           id="shape74"
           transform="translate(96.1904, 61.4001)"
           fill="#5486bc"
           stroke="#ffffff"
           stroke-width="0.00750000000"
           stroke-linecap="butt"
           stroke-linejoin="round"
           d="M0 8.78337L11.7773 8.78337L11.7773 0L0 0ZM0 8.78337" />
        <path
           id="shape75"
           transform="translate(96.1904, 52.4681)"
           fill="#5a8cc0"
           stroke="#ffffff"
           stroke-width="0.00750000000"
           stroke-linecap="butt"
           stroke-linejoin="round"
           d="M0 8.78337L11.7773 8.78337L11.7773 0L0 0ZM0 8.78337" />
        <path
           id="shape76"
           transform="translate(96.1904, 43.5361)"
           fill="#75acd0"
           stroke="#ffffff"
           stroke-width="0.00750000000"
           stroke-linecap="butt"
           stroke-linejoin="round"
           d="M0 8.78337L11.7773 8.78337L11.7773 0L0 0ZM0 8.78337" />
        <path
           id="shape77"
           transform="translate(96.1904, 34.6041)"
           fill="#70a9cf"
           stroke="#ffffff"
           stroke-width="0.00750000000"
           stroke-linecap="butt"
           stroke-linejoin="round"
           d="M0 8.78337L11.7773 8.78337L11.7773 0L0 0ZM0 8.78337" />
        <path
           id="shape78"
           transform="translate(96.1904, 25.6731)"
           fill="#70a8cf"
           stroke="#ffffff"
           stroke-width="0.00750000000"
           stroke-linecap="butt"
           stroke-linejoin="round"
           d="M0 8.78337L11.7773 8.78337L11.7773 0L0 0ZM0 8.78337" />
        <g
           id="group35"
           transform="translate(86.7819, 0.617015)"
           fill="none">
          <path
             id="shape79"
             transform="translate(9.40856, 16.1236)"
             fill="#679cc8"
             stroke="#ffffff"
             stroke-width="0.00750000000"
             stroke-linecap="butt"
             stroke-linejoin="round"
             d="M0 8.78337L11.7773 8.78337L11.7773 0L0 0ZM0 8.78337" />
        </g>
        <path
           id="shape80"
           transform="translate(108.588, 97.1271)"
           fill="#4c7db8"
           stroke="#ffffff"
           stroke-width="0.00750000000"
           stroke-linecap="butt"
           stroke-linejoin="round"
           d="M0 8.78337L11.7773 8.78337L11.7773 0L0 0ZM0 8.78337" />
        <path
           id="shape81"
           transform="translate(108.588, 88.1941)"
           fill="#4b7ab7"
           stroke="#ffffff"
           stroke-width="0.00750000000"
           stroke-linecap="butt"
           stroke-linejoin="round"
           d="M0 8.78337L11.7773 8.78337L11.7773 0L0 0ZM0 8.78337" />
        <path
           id="shape82"
           transform="translate(108.588, 79.2631)"
           fill="#4062ab"
           stroke="#ffffff"
           stroke-width="0.00750000000"
           stroke-linecap="butt"
           stroke-linejoin="round"
           d="M0 8.78337L11.7773 8.78337L11.7773 0L0 0ZM0 8.78337" />
        <path
           id="shape83"
           transform="translate(108.588, 70.3311)"
           fill="#333996"
           stroke="#ffffff"
           stroke-width="0.00750000000"
           stroke-linecap="butt"
           stroke-linejoin="round"
           d="M0 8.78337L11.7773 8.78337L11.7773 0L0 0ZM0 8.78337" />
        <path
           id="shape84"
           transform="translate(108.588, 61.4001)"
           fill="#679cc8"
           stroke="#ffffff"
           stroke-width="0.00750000000"
           stroke-linecap="butt"
           stroke-linejoin="round"
           d="M0 8.78337L11.7773 8.78337L11.7773 0L0 0ZM0 8.78337" />
        <path
           id="shape85"
           transform="translate(108.588, 52.4681)"
           fill="#5c8fc1"
           stroke="#ffffff"
           stroke-width="0.00750000000"
           stroke-linecap="butt"
           stroke-linejoin="round"
           d="M0 8.78337L11.7773 8.78337L11.7773 0L0 0ZM0 8.78337" />
        <path
           id="shape86"
           transform="translate(108.588, 43.5361)"
           fill="#649ac7"
           stroke="#ffffff"
           stroke-width="0.00750000000"
           stroke-linecap="butt"
           stroke-linejoin="round"
           d="M0 8.78337L11.7773 8.78337L11.7773 0L0 0ZM0 8.78337" />
        <path
           id="shape87"
           transform="translate(108.588, 34.6041)"
           fill="#70a9cf"
           stroke="#ffffff"
           stroke-width="0.00750000000"
           stroke-linecap="butt"
           stroke-linejoin="round"
           d="M0 8.78337L11.7773 8.78337L11.7773 0L0 0ZM0 8.78337" />
        <path
           id="shape88"
           transform="translate(108.588, 25.6731)"
           fill="#6aa2ca"
           stroke="#ffffff"
           stroke-width="0.00750000000"
           stroke-linecap="butt"
           stroke-linejoin="round"
           d="M0 8.78337L11.7773 8.78337L11.7773 0L0 0ZM0 8.78337" />
        <g
           id="group36"
           transform="translate(98.562, 0)"
           fill="none">
          <path
             id="shape89"
             transform="translate(10.0261, 16.7411)"
             fill="#679cc8"
             d="M0 8.78337L11.7773 8.78337L11.7773 0L0 0ZM0 8.78337" />
        </g>
        <g
           id="group37"
           transform="translate(99.1796, 0.617015)"
           fill="none">
          <path
             id="shape90"
             transform="translate(9.40856, 16.1236)"
             fill="none"
             stroke="#ffffff"
             stroke-width="0.00750000000"
             stroke-linecap="butt"
             stroke-linejoin="round"
             d="M0 8.78337L11.7773 8.78337L11.7773 0L0 0ZM0 8.78337" />
        </g>
      </g>
    </g>
    <g
       id="group1"
       transform="translate(622.038, 275.815)"
       fill="none">
      <path
         id="path131"
         transform="translate(5.81102, 3.125)"
         fill="#fcf0f0"
         fill-rule="evenodd"
         stroke="#000000"
         stroke-width="1.25000000000"
         stroke-linecap="square"
         stroke-linejoin="miter"
         stroke-miterlimit="2.00000000000"
         d="M157.927 78.9637C157.927 35.3533 122.574 2.67037e-15 78.9637 0C35.3533 -2.67037e-15 5.34074e-15 35.3533 0 78.9637C-5.34074e-15 122.574 35.3533 157.927 78.9637 157.927C122.574 157.927 157.927 122.574 157.927 78.9637" />
      <g
         id="g133"
         transform="translate(22.2109, 35.7381)"
         fill="none">
        <path
           id="path5542"
           transform="translate(21.0071, 38.8119)"
           fill="#000000"
           fill-rule="evenodd"
           stroke="#000000"
           stroke-width="2.00000000000"
           stroke-linecap="butt"
           stroke-linejoin="miter"
           stroke-miterlimit="2.00000000000"
           d="M8.13868 3.54615C7.69923 4.508 7.33123 6.66789 8.14555 6.89067C8.9249 7.10388 9.2562 7.49837 9.85103 7.82386C10.0409 7.92775 10.6189 9.69211 10.7038 10.0635C11.0158 11.4295 10.1921 10.3611 10.1921 11.7433C10.1921 13.0427 10.4309 13.423 9.16887 13.423C8.99369 13.423 7.91172 11.9713 7.63389 11.7433C7.5622 11.6845 6.63217 14.1382 6.61059 14.1696C5.93023 15.1624 4.96496 12.3784 4.90512 12.1166C4.64261 10.9674 4.04423 12.6943 3.88183 13.0498C3.33636 14.2436 3.03935 12.908 2.85854 12.1166C2.66862 11.2852 2.24156 10.6235 1.3236 10.6235C0.520579 10.6235 0.885154 12.65 0.129761 10.9967C-0.404651 9.82709 0.842644 9.28342 1.49415 8.57041C2.05642 7.95509 2.18529 7.0577 2.51745 6.33075C2.88542 5.52537 2.11813 4.5828 2.0058 4.09107C1.89345 3.59934 1.6647 0.8331 1.6647 0" />
        <path
           id="path5552"
           transform="translate(5.95114, 3.29095)"
           fill="#000000"
           fill-rule="evenodd"
           stroke="#000000"
           stroke-width="1.60714531000"
           stroke-linecap="butt"
           stroke-linejoin="miter"
           stroke-miterlimit="2.00000000000"
           d="M25.3387 14.3885C25.472 10.8385 21.2697 8.6909 18.0811 7.16337C14.5404 5.62887 10.9563 3.64352 7.1194 3.04346C2.16159 3.42896 2.71486 8.15863 1.23922 10.8365C-1.67985 8.34329 1.13411 3.46839 3.75732 1.36331C7.16048 -1.48768 11.8994 0.748127 15.2124 2.49651C19.999 4.7859 24.4834 7.48221 28.9556 10.1809L29.6567 10.477L30.3006 10.6709" />
        <path
           id="path5564"
           transform="translate(87.5891, 46.1049)"
           fill="#000000"
           fill-rule="evenodd"
           stroke="#000000"
           stroke-width="2.00000000000"
           stroke-linecap="butt"
           stroke-linejoin="miter"
           stroke-miterlimit="2.00000000000"
           d="M9.91423 0C9.72563 0.743322 9.73844 2.95417 9.73844 3.79736C9.73844 4.79007 10.2305 5.76456 10.4347 6.5692C10.6627 7.46777 11.2846 8.07086 11.6655 8.82134C12.0014 9.48327 12.7061 10.1533 13.248 10.5537C13.6552 10.8547 15.5429 11.7894 15.8713 12.1129C16.5694 12.8007 17.5419 13.0831 18.1572 13.3256C19.2722 13.765 18.0086 14.5114 17.6296 14.8848C17.2675 15.2416 17.8845 16.9285 17.9813 17.3101C18.265 18.4282 18.5209 18.1764 17.1021 18.1764C16.0802 18.1764 16.0891 18.4403 15.6955 19.2158C15.3217 19.9524 13.4212 18.361 13.4097 18.3496C12.8104 17.7591 12.7907 17.4834 12.003 17.4834C10.8545 17.4834 11.0362 18.3931 9.89304 17.8299C9.80658 17.7872 9.19495 15.5881 9.18973 15.5777C8.89169 14.9904 9.39627 14.0697 8.99975 13.6791C8.33821 13.0273 7.51071 12.7317 7.06558 12.2931C6.50135 11.7372 6.00131 11.5933 5.30727 11.0805C4.53199 10.5076 3.48497 9.90796 3.02854 9.00853C2.83783 8.63273 0.365013 6.19251 0 5.76963" />
        <path
           id="path5579"
           transform="translate(97.7521, 10.4799)"
           fill="#4d4d4d"
           fill-rule="evenodd"
           stroke="#4d4d4d"
           stroke-width="2.00000000000"
           stroke-linecap="butt"
           stroke-linejoin="miter"
           stroke-miterlimit="2.00000000000"
           d="M0 10.2597C0.565957 9.95322 2.42569 8.89415 2.90332 8.51702C3.91075 7.72153 4.95259 6.49433 5.4156 5.51935C5.87865 4.54433 7.03914 3.47539 7.59292 2.69798C8.30578 1.69727 8.80651 0.813961 9.77024 0.0529633C10.302 -0.366974 10.1052 1.83252 10.1052 2.34531C10.1052 3.31894 10.0633 4.28484 10.2727 5.16664C10.4821 6.04879 11.5766 6.50152 11.9476 7.28268C12.3602 8.15162 12.4531 9.03839 12.7917 9.75134C13.1826 10.5743 13.2942 10.7542 13.2942 11.6981C13.2942 12.172 11.9094 14.7438 11.4653 15.1154" />
        <path
           id="path5599"
           transform="translate(57.2891, 54.4459)"
           fill="#000000"
           fill-rule="evenodd"
           stroke="#000000"
           stroke-width="2.00000000000"
           stroke-linecap="butt"
           stroke-linejoin="miter"
           stroke-miterlimit="2.00000000000"
           d="M0 0C0.390105 0.82319 2.91794 3.69231 3.91404 4.47826C4.96991 5.31135 5.88298 5.81365 6.88726 6.87017C7.71923 7.74548 8.38724 8.18627 8.81111 9.07808C9.20713 9.91137 10.0354 10.4471 10.0354 11.2861C10.0354 11.8144 9.44459 13.7924 9.86046 14.23C10.5498 14.9552 10.7544 15.1397 11.7843 14.5979C12.2837 14.3352 12.7814 13.494 13.3583 13.494C14.6197 13.494 14.4734 13.6322 14.9324 14.5979C15.2315 15.2271 15.8275 16.2322 16.6814 15.3339C17.0408 14.9557 17.3489 13.8075 18.2554 14.046C19.2465 14.3066 19.3873 13.8862 20.1793 13.678C20.5472 13.5812 22.4366 13.4769 21.4035 12.39C21.1256 12.0976 20.7878 10.9181 20.1793 10.9181C19.2685 10.9181 18.7927 10.7407 18.0805 10.3661C17.5035 10.0625 16.1689 8.92323 15.9888 8.16554C15.91 7.83405 16.2726 3.01281 16.8563 2.85931" />
        <path
           id="path5601"
           transform="translate(20.3471, 8.16495)"
           fill="#000000"
           fill-rule="evenodd"
           stroke="#000000"
           stroke-width="2.00000000000"
           stroke-linecap="round"
           stroke-linejoin="round"
           d="M37.7721 0.0056826C35.8048 0.0451611 33.8261 0.285355 31.9348 0.597095C25.4349 2.84748 18.1973 0.971635 11.8129 3.38211C7.2136 6.14222 5.47471 11.1166 2.55042 15.3287C-1.3591 18.7798 0.103879 23.424 1.21776 27.759C1.30855 32.8747 7.57714 34.3328 11.6367 34.6626C16.4371 36.7724 20.0141 40.1947 25.1395 41.8239C29.4532 44.2343 34.8534 44.2958 38.9066 47.0283C43.4172 48.5324 47.909 48.4584 52.2881 49.8564C56.9275 50.4447 60.8236 50.4074 65.0198 50.1359C71.3285 49.5995 76.979 47.4443 82.0029 44.6198C85.8841 42.6528 88.344 38.8316 93.325 38.3507C97.5842 37.4507 99.1617 37.0559 101.949 33.813C104.41 29.3751 103.401 26.1708 99.6908 23.9096C96.5313 21.4158 94.7509 19.2515 92.1905 16.619C88.1612 14.2696 83.1884 12.6495 78.4235 12.049C73.532 14.4689 67.9022 13.9603 62.795 12.6189C56.1696 11.7664 51.1281 7.01064 47.1446 2.12402C44.3132 0.433301 41.0509 -0.0601152 37.7721 0.0056826ZM82.6857 22.8021C83.5564 22.7547 84.3452 23.164 84.8003 23.8988C85.2915 24.6921 85.225 24.9193 85.3511 25.8021C84.9524 26.5532 85.0286 26.9363 84.4479 27.3613C83.8677 27.7862 83.2527 28.5764 82.3112 28.5764C81.472 28.5764 79.8222 28.6487 79.8222 27.5334C79.8222 26.6109 79.6253 25.6463 80.1746 24.931C80.6275 24.3413 81.1883 23.0812 82.3112 22.8558C82.4382 22.8302 82.5615 22.8086 82.6857 22.8021Z" />
        <path
           id="path2178"
           transform="translate(70.0751, 21.3079)"
           fill="#4d4d4d"
           fill-rule="evenodd"
           stroke="#4d4d4d"
           stroke-width="2.00000000000"
           stroke-linecap="butt"
           stroke-linejoin="miter"
           stroke-miterlimit="2.00000000000"
           d="M19.5139 4.64714C19.7962 4.43976 17.1713 3.80591 14.9547 2.50279C13.4439 1.61454 12.6468 0.775909 10.9426 0.358434C9.32538 -0.0377209 7.54673 0.00103805 5.83622 0.00103805C4.18866 0.00103805 2.80938 0.0543948 1.45933 0.715829C-0.0628487 1.46159 0.000371873 1.99756 0.000371873 3.75366C0.000371873 5.11987 2.23432 7.01477 3.10067 7.86368C4.67962 9.41086 6.29114 11.2118 7.1128 13.2246C7.38407 13.2444 7.74893 13.3746 7.98507 13.1432C8.29659 12.838 8.69819 12.1917 9.14566 11.7532C9.5386 11.3683 9.79045 10.9519 9.79045 10.2369C9.79045 9.57767 9.76739 8.93742 9.9194 8.34159C10.1303 7.51515 10.9019 7.93245 11.209 7.33072C11.4813 6.79701 11.9851 6.22453 12.6275 6.06716C13.2225 5.9214 13.8151 5.71306 14.4328 5.56172C14.9852 5.42643 15.4153 5.35267 16.1092 5.18265C16.6503 5.05012 18.3601 5.22194 18.9463 4.92992C19.1355 4.83566 19.3248 4.74142 19.5139 4.64714Z" />
        <path
           id="path5840"
           transform="translate(117.792, 37.1129)"
           fill="#666666"
           fill-rule="evenodd"
           stroke="#666666"
           stroke-width="2.00000000000"
           stroke-linecap="butt"
           stroke-linejoin="miter"
           stroke-miterlimit="2.00000000000"
           d="M4.10428 0.111135C3.87038 0.918358 2.9759 0.997339 1.90834 1.19492C1.14529 1.33615 0.454735 1.52882 0.0051978 1.73682C-0.0988738 1.78497 1.39009 2.41419 1.76195 2.41419C2.86644 2.41419 2.7305 2.61249 2.93312 3.36251C3.16492 4.22055 2.68058 4.67998 3.5187 3.9044C4.00718 3.45236 3.95787 3.07762 3.95787 2.27872C3.95787 1.31078 4.2341 1.34574 4.83624 0.788506C5.55537 0.123026 4.73585 -0.181094 4.10428 0.111135Z" />
      </g>
      <path
         id="path143"
         transform="translate(52.044, 112.275)"
         fill="#000000"
         d="M51.601 17.8971C52.5725 16.629 53.2042 14.1969 52.9872 12.5714C52.895 11.8743 52.7325 11.4701 52.3082 10.8896C51.9979 10.4578 51.9033 10.3594 51.6249 10.2014C51.209 9.96663 50.6319 9.88889 50.2226 10.0081C49.5723 10.1972 48.8021 10.8739 48.4119 11.5916C48.3198 11.7657 48.2114 11.9155 48.1768 11.9175C48.022 11.9227 43.5106 10.6191 43.4684 10.556C43.4424 10.5172 43.4767 10.1921 43.5443 9.8307C44.0095 7.41863 43.8986 5.71516 43.22 4.70058C42.9473 4.2928 42.6659 4.10863 42.2581 4.05818C41.8289 4.00798 41.5698 4.08295 41.1225 4.3821C40.4666 4.82085 40.0244 5.4609 39.4389 6.8222L39.158 7.46681L38.918 7.43059C38.7865 7.40611 38.3283 7.291 37.9097 7.17052C37.4878 7.04519 34.6638 6.26418 31.6328 5.43188C28.5935 4.59786 23.9929 3.33294 21.4036 2.61267C18.8127 1.9005 16.5958 1.31762 16.4756 1.32062C16.2172 1.33207 15.8243 1.61583 15.3435 2.15524L15.0376 2.49346L14.865 2.46123C14.7665 2.44291 14.0784 2.26377 13.3345 2.06571C12.5907 1.86755 11.7876 1.66702 11.5575 1.62425L11.132 1.53647L10.809 1.75253C10.6302 1.87214 10.4093 2.06904 10.3211 2.18429C10.2327 2.29939 10.1312 2.4167 10.0915 2.44321C10.0567 2.46649 8.68371 2.11292 7.03867 1.65356C1.70764 0.167453 1.08532 0.000535659 0.854884 0.000111957C0.591431 -0.0064498 0.104924 0.276854 0.0421495 0.473402C-0.0373874 0.709383 -0.00493951 0.940573 0.144433 1.16389C0.322946 1.43077 0.498355 1.51033 1.52138 1.78163C1.91882 1.88113 3.28971 2.26391 4.572 2.62195C5.85934 2.9764 7.26309 3.36542 7.69981 3.48076C8.869 3.7879 9.51405 3.98878 9.56927 4.07135C9.59526 4.11019 9.59933 4.21286 9.57538 4.30604C9.49859 4.58936 9.55407 4.83336 9.74772 5.06918C9.95929 5.321 9.90351 5.30209 11.9189 5.76682C12.6894 5.94006 13.4138 6.10902 13.5321 6.13529C13.7439 6.18321 13.7472 6.18808 13.7505 6.3757C13.7588 7.43114 14.1317 8.37603 14.6269 8.5788C14.7679 8.63904 27.3337 12.2631 33.2128 13.9448C36.4635 14.8691 36.8657 14.9865 36.8852 15.0156C36.8949 15.0302 36.887 15.3517 36.862 15.7337C36.7871 17.0626 36.9754 18.0539 37.4332 18.7383C37.7255 19.1752 37.9788 19.3712 38.3583 19.4546C39.1058 19.6151 40.0146 19.0705 40.7504 18.0092C41.2826 17.2456 42.1581 15.5007 42.3974 14.7293C42.4347 14.613 42.4785 14.5065 42.4984 14.4932C42.5232 14.4765 43.5497 14.7315 44.7878 15.0556C46.0227 15.3749 47.1115 15.6584 47.2051 15.6801L47.371 15.7238L47.3562 16.078C47.3287 16.5531 47.4183 17.1817 47.5695 17.5583C47.7465 17.995 48.2328 18.6253 48.5536 18.8253C48.9203 19.0508 49.5531 19.1475 49.9722 19.0428C50.5167 18.9105 51.1845 18.4357 51.601 17.8971ZM49.554 17.6433C49.1624 17.6171 48.8522 17.1641 48.8037 16.5431C48.7584 15.927 48.7517 15.9385 49.1591 16.0314C49.5632 16.1194 49.753 16.0698 50.0468 15.81C50.3338 15.5618 50.5132 15.217 50.6435 14.6591C50.8013 13.9703 50.7573 13.5711 50.4687 13.0967C50.2353 12.7047 50.2206 12.6935 49.7038 12.5122C49.5643 12.465 49.5677 12.4486 49.7782 12.1181C50.1608 11.518 50.5813 11.2648 50.8955 11.4551C51.1149 11.5894 51.405 12.0769 51.4953 12.4592C51.7544 13.6209 51.425 15.4081 50.7138 16.6567C50.3723 17.2645 49.8995 17.6651 49.554 17.6433ZM46.439 13.9863C44.8691 13.5749 43.3944 13.1982 43.1578 13.1456L42.734 13.0497L42.8723 12.5145L43.0124 11.9712L43.2848 12.0559C43.4293 12.0998 44.8643 12.5031 46.4634 12.9582C48.8457 13.6272 49.3807 13.8034 49.4192 13.9041C49.4561 14.0129 49.3726 14.673 49.3129 14.7129C49.298 14.7229 48.0056 14.3929 46.439 13.9863ZM38.7271 18.0275C38.571 17.9984 38.5775 18.0081 38.4397 17.6085C38.2634 17.0869 38.1616 15.8271 38.2588 15.2842L38.2986 15.0749L38.6155 14.9895C39.3895 14.7809 40.0151 14.0603 40.6091 12.6794C41.3948 10.8539 41.4148 9.05584 40.6581 8.2902C40.4152 8.04521 40.422 8.01249 40.7735 7.2153C41.0745 6.53618 41.5479 5.72769 41.727 5.58682C42.0221 5.36132 42.0303 5.36286 42.1594 5.64187C42.3225 5.98248 42.4335 6.61085 42.4297 7.19658C42.4348 8.59139 41.78 12.0858 41.1668 13.9434C40.7078 15.3325 39.8744 16.979 39.3238 17.5862C38.9131 18.0366 38.8832 18.0566 38.7271 18.0275ZM38.0556 13.776C37.914 13.7794 37.5378 13.7008 37.2275 13.6133C36.9189 13.5175 35.2443 13.0356 33.5058 12.5333C31.7655 12.0391 28.4986 11.0906 26.2362 10.4396C23.9789 9.78549 20.6133 8.81846 18.7582 8.28177C15.4896 7.34142 15.3896 7.31001 15.3039 7.12829C14.9313 6.30245 15.6708 3.78419 16.5246 2.95318C16.6741 2.81104 16.6874 2.80924 17.4771 3.03288C17.917 3.15309 18.385 3.28279 18.518 3.32018L18.7561 3.38579L18.6474 3.57805C18.4832 3.87046 18.1532 4.82887 18.1771 4.93948C18.1913 4.99322 18.2576 5.12464 18.3257 5.22655C18.4784 5.45474 18.8214 5.56947 19.0593 5.47364C19.251 5.39457 19.4793 5.08021 19.5479 4.79536C19.6131 4.5271 19.9351 3.86895 20.0345 3.80246C20.1091 3.75257 21.7513 4.16486 21.9003 4.26897C21.9411 4.2979 21.8933 4.48443 21.7874 4.72392C21.5131 5.35694 21.457 5.72479 21.6058 6.01176C21.7173 6.23217 21.7467 6.25458 22.0178 6.30524C22.2561 6.34955 22.3402 6.33543 22.5092 6.22239C22.678 6.10946 22.7299 6.0256 22.8032 5.75871C22.8955 5.38078 23.17 4.72646 23.2494 4.67333C23.2892 4.64672 24.4636 4.92921 25.337 5.18109L25.5455 5.24559L25.4416 5.43436C24.9843 6.28838 24.9074 6.77549 25.1928 7.06238C25.3689 7.23958 25.752 7.2856 25.9508 7.15262C26.1247 7.03634 26.21 6.89481 26.4657 6.28809C26.6678 5.81582 26.8196 5.60185 26.9296 5.62659C27.2959 5.71184 28.8143 6.16463 28.8109 6.18103C28.8075 6.19742 28.7284 6.36958 28.6411 6.56161C28.3806 7.12919 28.2618 7.69351 28.3471 7.89638C28.5179 8.30225 29.0664 8.43409 29.3671 8.14168C29.4418 8.07056 29.5543 7.84079 29.617 7.64426C29.78 7.11368 29.9381 6.74795 30.0595 6.61759C30.1494 6.51537 30.2333 6.52252 30.7767 6.67897C31.9915 7.03274 38.9779 8.95034 39.336 9.03404C39.7712 9.13637 39.8429 9.22196 39.9006 9.73842C40.0071 10.6719 39.4756 12.4257 38.8222 13.2984C38.5488 13.6639 38.3716 13.7754 38.0556 13.776ZM13.6952 4.69115C13.4473 4.63211 12.7558 4.46929 12.1611 4.33311L11.0787 4.08038L11.1409 3.76489C11.1965 3.4607 11.3227 3.1655 11.4221 3.09901C11.4618 3.0725 14.38 3.81152 14.4485 3.87108C14.4747 3.88862 14.207 4.71414 14.1555 4.77685C14.1487 4.7884 13.9401 4.74521 13.6952 4.69115Z" />
    </g>
    <g
       id="group2"
       transform="translate(972.647, 268.112)"
       fill="none">
      <path
         id="path146"
         transform="translate(-7.61907, 8.49703)"
         fill="#fcf0f0"
         fill-rule="evenodd"
         stroke="#000000"
         stroke-width="1.25000000000"
         stroke-linecap="square"
         stroke-linejoin="miter"
         stroke-miterlimit="2.00000000000"
         d="M160.422 80.211C160.422 35.9117 124.51 2.71255e-15 80.211 0C35.9117 -2.71255e-15 5.4251e-15 35.9117 0 80.211C-5.4251e-15 124.51 35.9117 160.422 80.211 160.422C124.51 160.422 160.422 124.51 160.422 80.211" />
      <path
         id="path148"
         transform="translate(0.355934, 54.523)"
         fill="#3d46ff"
         d="M9.03336 55.7804C16.5026 59.3026 25.0717 56.8166 28.173 50.2333L36.6187 32.3018L42.4637 19.8968C45.5644 13.3121 42.0246 5.1219 34.5548 1.59822C27.0852 -1.92059 18.5161 0.565476 15.4143 7.1474L9.57156 19.5534L1.12365 37.484C-1.97858 44.0691 1.56333 52.2599 9.03336 55.7804ZM18.6127 8.65701C20.8787 3.84657 27.3539 2.1181 33.0467 4.79965C38.7386 7.48314 41.528 13.5765 39.2626 18.3883L33.4192 30.7928L12.7692 21.0615Z" />
      <g
         id="g150"
         transform="translate(48.8288, 46.972)"
         fill="none">
        <g
           id="group3"
           transform=""
           fill="none">
          <path
             id="path153"
             transform="translate(35.5419, 28.701)"
             fill="#000000"
             d="M8.87939 5.44837C10.7524 5.44837 12.5329 5.7858 14.1515 6.39116C14.2787 4.11852 15.1805 2.02455 16.6489 0.287801C15.6199 0.0992416 14.5562 0 13.4694 0L3.1679 0C2.0811 0 1.01743 0.0992416 0 0.277877C1.56083 2.13369 2.48577 4.39641 2.50889 6.84767C4.39345 5.95452 6.56705 5.44837 8.87939 5.44837Z" />
          <path
             id="path155"
             transform="translate(31.933, 5.99703)"
             fill="#000000"
             d="M11.7616 0C18.2585 0 23.5232 4.87011 23.5232 10.88C23.5232 16.8899 18.2585 21.7599 11.7616 21.7599C5.26472 21.7599 0 16.8899 0 10.88C0 4.87011 5.26472 0 11.7616 0Z" />
          <path
             id="path157"
             transform="translate(50.8167, 26.464)"
             fill="#000000"
             d="M10.8432 20.0094C16.8312 20.0094 21.6865 15.5295 21.6865 10.0047C21.6865 4.47985 16.8312 0 10.8432 0C4.91142 0 0.0897063 4.39709 0 9.85983C3.42006 11.8359 5.8197 15.1881 6.25702 19.0678C7.65868 19.6576 9.20612 20.0094 10.8432 20.0094Z" />
          <path
             id="shape91"
             transform="translate(14.8592, 26.454)"
             fill="#000000"
             d="M10.8432 0C4.85536 0 0 4.47985 0 10.0047C0 15.5295 4.85536 20.0094 10.8432 20.0094C12.9626 20.0094 14.9361 19.4404 16.6069 18.4677C17.1451 15.2708 18.9953 12.467 21.6528 10.5634C21.6641 10.3771 21.6865 10.1909 21.6865 10.0047C21.6865 4.47985 16.8312 0 10.8432 0Z" />
          <path
             id="shape101"
             transform="translate(68.2067, 16.283)"
             fill="#000000"
             d="M0 9.84948C3.42006 11.8256 5.8197 15.1777 6.25702 19.0576C7.64746 19.6576 9.19491 20.0094 10.8432 20.0094C16.8312 20.0094 21.6865 15.5295 21.6865 10.0047C21.6865 4.47985 16.8312 0 10.8432 0C4.91142 0 0.0897063 4.39709 0 9.84948Z" />
          <path
             id="shape112"
             transform="translate(33.3722, 36.896)"
             fill="#000000"
             d="M10.8433 0C16.8312 0 21.6865 4.47985 21.6865 10.0047C21.6865 15.5295 16.8312 20.0094 10.8433 20.0094C4.85538 20.0094 1.93834e-05 15.5295 1.93834e-05 10.0047C-0.0111939 4.47985 4.84417 0 10.8433 0Z" />
          <path
             id="shape121"
             transform="translate(52.9428, 47.37)"
             fill="#000000"
             d="M13.0514 0L4.05995 0C3.96065 3.48025 2.42715 6.60823 0 8.8608C6.69671 10.7931 11.5951 16.8035 11.5951 23.9027L11.5951 27.2016C20.4653 26.8814 25.5844 24.4579 25.9153 24.2871L26.6324 23.9348L26.7096 23.9348L26.7096 13.2165C26.7096 5.925 20.5756 0 13.0514 0Z" />
          <path
             id="shape131"
             transform="translate(70.3327, 37.189)"
             fill="#000000"
             d="M13.0404 0L4.05995 0C3.96065 3.48025 2.42715 6.60823 0 8.8608C6.69671 10.7931 11.5951 16.8035 11.5951 23.9027L11.5951 27.2016C20.4653 26.8814 25.5844 24.4579 25.9153 24.2871L26.6324 23.9348L26.7096 23.9348L26.7096 13.2272C26.7096 5.93565 20.5756 0 13.0404 0Z" />
          <path
             id="shape141"
             transform="translate(7.41263, 47.36)"
             fill="#000000"
             d="M26.9488 8.80894C24.6059 6.58285 23.1188 3.48753 23.0118 0.053002C22.6909 0.0318013 22.3699 0 22.0382 0L13.2551 0C5.94819 0 0 5.89382 0 13.1339L0 23.7768L0.0213964 23.9356L0.759571 24.1689C6.35472 25.8968 11.3508 26.6919 15.6836 26.9462L15.6836 23.7343C15.7049 16.6957 20.4549 10.7276 26.9488 8.80894Z" />
          <path
             id="shape151"
             transform="translate(25.9256, 57.802)"
             fill="#000000"
             d="M22.8809 0L13.7619 0C6.17562 0 0 5.97063 0 13.3051L0 24.0866L0.0333216 24.2584L0.799721 24.4947C8.04162 26.6855 14.3283 27.4155 19.5043 27.4155C29.6119 27.4155 35.4764 24.6234 35.843 24.4516L36.565 24.0973L36.6427 24.0973L36.6427 13.3051C36.6427 5.97063 30.4671 0 22.8809 0Z" />
          <path
             id="shape161"
             transform="translate(-2.68337, 16.597)"
             fill="#000000"
             d="M10.8432 20.0507C12.4804 20.0507 14.0391 19.6984 15.4295 19.0975C15.8668 15.2013 18.2665 11.8543 21.6865 9.87512C21.5967 4.41427 16.7863 0 10.8432 0C4.85536 0 0 4.4868 0 10.0202C0 15.5639 4.85536 20.0507 10.8432 20.0507Z" />
          <path
             id="shape171"
             transform="translate(-10.1191, 37.513)"
             fill="#000000"
             d="M26.7096 8.88191C24.2824 6.6267 22.7489 3.48435 22.6497 0L13.6582 0C6.13405 0 0 5.94265 0 13.2427L0 23.9737L0.0772273 23.9737L0.794339 24.3263C1.13634 24.4868 6.24437 26.9235 15.1145 27.2442L15.1145 23.9309C15.1145 16.8233 20.013 10.8058 26.7096 8.88191Z" />
          <path
             id="shape181"
             transform="translate(13.987, 8.73603)"
             fill="#000000"
             d="M6.18059 17.2841C7.4384 16.7761 9.35763 16.1492 11.1901 16.1492C13.3262 16.1492 15.4081 16.7004 17.2731 17.7381C17.6852 17.3274 18.0647 16.895 18.4117 16.4193C16.6442 14.1062 15.6792 11.2633 15.6792 8.34479C15.6792 6.37751 16.1238 4.43181 16.9587 2.6591C15.0503 0.940413 12.6106 0 10.0191 0C5.30229 0 1.19275 3.17795 0 7.66382C3.51318 9.70677 5.81193 13.2847 6.18059 17.2841Z" />
          <path
             id="shape191"
             transform="translate(54.3601, 8.74703)"
             fill="#000000"
             d="M0 15.4593C0.373672 16.019 0.802295 16.5575 1.29686 17.0538C3.04432 16.2196 4.96763 15.7761 6.89094 15.7761C8.79227 15.7761 10.6167 16.2407 11.8036 16.6314C12.1773 12.397 14.848 8.64833 18.8375 6.75814C17.3757 2.73494 13.4082 0 8.92416 0C6.02271 0 3.27513 1.14044 1.28587 3.15733C1.97826 4.75182 2.34095 6.43082 2.34095 8.15202C2.32995 10.7814 1.52766 13.2946 0 15.4593Z" />
        </g>
      </g>
    </g>
  </g>
</svg>
