<?xml version="1.0" encoding="UTF-8" standalone="no"?>
<svg
   xmlns:dc="http://purl.org/dc/elements/1.1/"
   xmlns:cc="http://creativecommons.org/ns#"
   xmlns:rdf="http://www.w3.org/1999/02/22-rdf-syntax-ns#"
   xmlns:svg="http://www.w3.org/2000/svg"
   xmlns="http://www.w3.org/2000/svg"
   viewBox="0 0 983.04999 184.8"
   height="184.8"
   width="983.04999"
   xml:space="preserve"
   version="1.1"
   id="svg4171"><metadata
     id="metadata4177"><rdf:RDF><cc:Work
         rdf:about=""><dc:format>image/svg+xml</dc:format><dc:type
           rdf:resource="http://purl.org/dc/dcmitype/StillImage" /><dc:title></dc:title></cc:Work></rdf:RDF></metadata><defs
     id="defs4175" /><g
     transform="matrix(1.25,0,0,-1.25,0,184.8)"
     id="g4179"><g
       transform="scale(0.1,0.1)"
       id="g4181"><path
         id="path4183"
         style="fill:#d29908;fill-opacity:1;fill-rule:nonzero;stroke:none"
         d="m 1213.63,895.34 c 0,0.101 0,0.254 0,0.351 0,0.188 0,0.282 0,0.442 0.53,152.737 129.39,276.347 288.51,276.627 159.3,-0.28 288.19,-124.15 288.49,-277.069 l 318.35,0 c -0.13,321.899 -271.63,582.629 -606.84,582.699 -177.29,-0.03 -336.72,-73 -447.67,-189.38 -110.915,116.38 -270.345,189.35 -447.607,189.38 l 0,-305.63 c 159.258,-0.28 288.18,-124.15 288.45,-277.069 -0.27,-152.925 -129.192,-276.695 -288.45,-276.98 -159.285,0.285 -288.211,124.055 -288.508,276.98 L 0,895.691 C 0.132813,573.848 271.637,313.148 606.863,313.012 c 177.262,0.07 336.692,73.047 447.607,189.41 110.95,-116.363 270.38,-189.34 447.67,-189.41 l 0,305.699 c -159.12,0.285 -287.98,123.859 -288.51,276.629" /><path
         id="path4185"
         style="fill:#b3b5b7;fill-opacity:1;fill-rule:nonzero;stroke:none"
         d="m 2072.47,548.527 c 0,21.524 -4.5,26.278 -21.9,26.278 l -207.27,0 0,-125.516 203.79,0 c 17.39,0 25.38,4.723 25.38,26.231 l 0,73.007 z m -32.31,-142.668 -196.86,0 0,-92.621 -52.67,0 0,305.473 257.45,0 c 35.79,0 80.52,-10.02 80.52,-74.461 l 0,-60.117 c 0,-64.442 -44.73,-78.274 -88.44,-78.274" /><path
         id="path4187"
         style="fill:#b3b5b7;fill-opacity:1;fill-rule:nonzero;stroke:none"
         d="m 2273.52,313.238 c -55.14,0 -78.04,31.512 -78.04,81.633 l 0,223.84 53.2,0 0,-241.5 c 0,-13.832 4.95,-18.609 19.39,-18.609 l 214.7,0 0,260.109 52.7,0 0,-305.473 -261.95,0" /><path
         id="path4189"
         style="fill:#b3b5b7;fill-opacity:1;fill-rule:nonzero;stroke:none"
         d="m 2903.12,548.527 c 0,21.524 -8.98,26.746 -26.37,26.746 l -200.29,0 0,-113.582 c 0,0 171.45,0 200.79,0 17.42,0 25.87,8.571 25.87,27.227 l 0,59.609 z m 7.93,-235.289 -52.67,99.75 -181.92,0 0,-99.75 -52.73,0 0,305.473 255.5,0 c 36.28,0 82.5,-11.453 82.5,-74.461 l 0,-53.906 c 0,-27.223 -12.92,-58.254 -49.2,-70.653 l 58.66,-106.453 -60.14,0" /><path
         id="path4191"
         style="fill:#b3b5b7;fill-opacity:1;fill-rule:nonzero;stroke:none"
         d="m 3343.73,551.895 c 0,12.89 -8.96,22.91 -21.88,22.91 l -228.15,0 0,-217.645 223.19,0 c 18.91,0 26.84,6.66 26.84,22.899 l 0,171.836 z m -14.91,-238.657 -286.8,0 0,305.473 286.8,0 c 46.22,0 67.61,-28.145 67.61,-67.773 l 0,-169.926 c 0,-41.981 -20.89,-67.774 -67.61,-67.774" /><path
         id="path4193"
         style="fill:#b3b5b7;fill-opacity:1;fill-rule:nonzero;stroke:none"
         d="m 3557.7,313.238 c -55.15,0 -78.04,31.512 -78.04,81.633 l 0,223.84 53.19,0 0,-241.5 c 0,-13.832 4.96,-18.609 19.4,-18.609 l 214.73,0 0,260.109 52.66,0 0,-305.473 -261.94,0" /><path
         id="path4195"
         style="fill:#b3b5b7;fill-opacity:1;fill-rule:nonzero;stroke:none"
         d="m 3974.05,313.238 c -48.21,0 -67.64,28.653 -67.64,67.774 l 0,169.926 c 0,38.652 19.9,67.773 67.64,67.773 l 228.15,0 c 0,-13.398 0,-43.906 0,-43.906 l -220.72,0 c -14.9,0 -21.37,-10.02 -21.37,-24.336 l 0,-55.379 223.68,0 0,-49.141 -223.68,0 0,-65.89 c 0,-16.239 7.97,-22.899 26.85,-22.899 l 215.24,0 0,-43.922 -228.15,0" /><path
         id="path4197"
         style="fill:#b3b5b7;fill-opacity:1;fill-rule:nonzero;stroke:none"
         d="m 4567.61,313.238 c -55.19,0 -78.06,31.512 -78.06,81.633 l 0,223.84 53.19,0 0,-241.5 c 0,-13.832 4.97,-18.609 19.37,-18.609 l 214.74,0 0,260.109 52.66,0 0,-305.473 -261.9,0" /><path
         id="path4199"
         style="fill:#b3b5b7;fill-opacity:1;fill-rule:nonzero;stroke:none"
         d="m 5198.62,313.238 0,229.586 c 0,22.899 -7.97,31.024 -32.32,31.024 l -201.31,-0.477 0,-260.133 -52.68,0 0,305.473 261.96,0 c 61.62,0 78.03,-28.145 78.03,-81.641 l 0,-223.832 -53.68,0" /><path
         id="path4201"
         style="fill:#b3b5b7;fill-opacity:1;fill-rule:nonzero;stroke:none"
         d="m 5337.06,312.762 0,305.949 53.19,0 0,-305.473 -53.19,-0.476" /><path
         id="path4203"
         style="fill:#b3b5b7;fill-opacity:1;fill-rule:nonzero;stroke:none"
         d="m 5667.51,312.762 c -36.29,0.476 -24.86,0.476 -60.63,0 l -153.05,305.949 56.62,0 126.76,-247.691 126.74,247.691 56.67,0 -153.11,-305.949" /><path
         id="path4205"
         style="fill:#b3b5b7;fill-opacity:1;fill-rule:nonzero;stroke:none"
         d="m 5930.24,313.238 c -48.18,0 -67.58,28.653 -67.58,67.774 l 0,169.926 c 0,38.652 19.87,67.773 67.58,67.773 l 228.19,0 c 0,-13.398 0,-43.906 0,-43.906 l -220.72,0 c -14.89,0 -21.37,-10.02 -21.37,-24.336 l 0,-55.379 223.69,0 0,-49.141 -223.69,0 0,-65.89 c 0,-16.239 7.97,-22.899 26.85,-22.899 l 215.24,0 0,-43.922 -228.19,0" /><path
         id="path4207"
         style="fill:#b3b5b7;fill-opacity:1;fill-rule:nonzero;stroke:none"
         d="m 6518.6,548.527 c 0,21.524 -8.98,26.746 -26.35,26.746 l -200.3,0 0,-113.582 c 0,0 171.45,0 200.82,0 17.37,0 25.83,8.571 25.83,27.227 l 0,59.609 z m 7.95,-235.289 -52.67,99.75 -181.93,0 0,-99.75 -52.7,0 0,305.473 255.47,0 c 36.28,0 82.54,-11.453 82.54,-74.461 l 0,-53.906 c 0,-27.223 -12.96,-58.254 -49.22,-70.653 l 58.66,-106.453 -60.15,0" /><path
         id="path4209"
         style="fill:#b3b5b7;fill-opacity:1;fill-rule:nonzero;stroke:none"
         d="m 6882.19,312.289 -215.73,0 0,46.313 211.27,0 c 25.33,0 46.68,20.019 46.68,43.886 0,24.364 -20.34,42.043 -45.69,42.492 l -139.7,0 c -49.2,0 -91.95,32.95 -91.95,88.293 0,47.754 39.29,84.969 88.48,84.969 l 212.75,0 0,-44.871 -208.78,0 c -23.36,0 -40.23,-18.625 -40.23,-41.047 0,-22.441 17.4,-38.203 40.76,-38.203 l 139.17,-0.437 c 51.18,0 95.92,-34.856 95.92,-91.664 0,-49.161 -41.75,-89.731 -92.95,-89.731" /><path
         id="path4211"
         style="fill:#b3b5b7;fill-opacity:1;fill-rule:nonzero;stroke:none"
         d="m 7048.49,312.762 0,305.949 53.19,0 0,-305.473 -53.19,-0.476" /><path
         id="path4213"
         style="fill:#b3b5b7;fill-opacity:1;fill-rule:nonzero;stroke:none"
         d="m 7345.65,572.422 0,-259.184 -56.16,0 0,259.184 -126.26,0 0,46.289 309.67,0 0,-46.289 -127.25,0" /><path
         id="path4215"
         style="fill:#b3b5b7;fill-opacity:1;fill-rule:nonzero;stroke:none"
         d="m 7719.72,393.449 0,-80.211 -56.66,0 0,81.133 -145.63,224.34 62.17,0 113.79,-175.16 108.9,175.16 62.11,0 -144.68,-225.262" /><path
         id="path4217"
         style="fill:#231f20;fill-opacity:1;fill-rule:nonzero;stroke:none"
         d="m 1848.75,0.578125 c -38.43,0 -58.12,15.351575 -58.12,50.140675 l 0,88.6602 c 0,34.859 19.69,50.23 58.12,50.23 l 124.56,0 0,-28.089 -134.11,0 c -11.66,0 -15.37,-5.571 -15.37,-18.899 l 0,-95.3827 c 0,-13.2774 3.71,-18.8672 15.37,-18.8672 l 134.11,0 0,-27.792975 -124.56,0" /><path
         id="path4219"
         style="fill:#231f20;fill-opacity:1;fill-rule:nonzero;stroke:none"
         d="m 2066.15,0.578125 c -29.83,0 -41.79,17.691375 -41.79,41.941375 l 0,105.1095 c 0,23.98 12.29,41.98 41.79,41.98 l 141.22,0 c 0,-8.277 0,-27.168 0,-27.168 l -136.55,0 c -9.25,0 -13.25,-6.211 -13.25,-15.101 l 0,-34.289 138.44,0 0,-30.3713 -138.44,0 0,-40.7578 c 0,-10.1016 4.92,-14.1836 16.61,-14.1836 l 133.19,0 0,-27.160175 -141.22,0" /><path
         id="path4221"
         style="fill:#231f20;fill-opacity:1;fill-rule:nonzero;stroke:none"
         d="m 2435.86,0.578125 0,142.042875 c 0,14.219 -4.9,19.231 -20,19.231 l -124.59,-0.332 0,-160.941875 -32.58,0 0,189.030875 162.1,0 c 38.13,0 48.34,-17.418 48.34,-50.507 l 0,-138.523875 -33.27,0" /><path
         id="path4223"
         style="fill:#231f20;fill-opacity:1;fill-rule:nonzero;stroke:none"
         d="m 2623.13,160.98 0,-160.401875 -34.73,0 0,160.401875 -78.14,0 0,28.629 191.64,0 0,-28.629 -78.77,0" /><path
         id="path4225"
         style="fill:#231f20;fill-opacity:1;fill-rule:nonzero;stroke:none"
         d="m 2783.64,0.578125 c -29.84,0 -41.83,17.691375 -41.83,41.941375 l 0,105.1095 c 0,23.98 12.36,41.98 41.83,41.98 l 141.22,0 c 0,-8.277 0,-27.168 0,-27.168 l -136.59,0 c -9.19,0 -13.24,-6.211 -13.24,-15.101 l 0,-34.289 138.47,0 0,-30.3713 -138.47,0 0,-40.7578 c 0,-10.1016 4.95,-14.1836 16.64,-14.1836 l 133.19,0 0,-27.160175 -141.22,0" /><path
         id="path4227"
         style="fill:#231f20;fill-opacity:1;fill-rule:nonzero;stroke:none"
         d="m 3147.83,146.172 c 0,13.359 -5.55,16.566 -16.3,16.566 l -124,0 0,-70.3161 c 0,0 106.16,0 124.34,0 10.73,0 15.96,5.3398 15.96,16.8081 l 0,36.942 z M 3152.71,0.578125 3120.14,62.25 l -112.61,0 0,-61.671875 -32.61,0 0,189.030875 158.14,0 c 22.46,0 51.04,-7.089 51.04,-46.14 l 0,-33.27 c 0,-16.8904 -8,-36.1287 -30.46,-43.7888 l 36.31,-65.832075 -37.24,0" /><path
         id="path4229"
         style="fill:#231f20;fill-opacity:1;fill-rule:nonzero;stroke:none"
         d="m 3414.1,162.441 c -8.03,0 -13.22,-5.929 -13.22,-13.89 l 0,-37.473 139.27,0 0,-30.7772 -139.27,0 0,-79.722675 c 0,0 -20.9,0 -32.34,0 l 0,147.050875 c 0,22.812 11.07,41.98 41.83,41.98 l 141.25,0 c 0,-8.277 0,-27.168 0,-27.168 l -137.52,0" /><path
         id="path4231"
         style="fill:#231f20;fill-opacity:1;fill-rule:nonzero;stroke:none"
         d="m 3784.03,150.32 c 0,8.02 -4.92,12.121 -15.06,12.121 l -126.69,0 c -9.87,0 -14.83,-3.8 -14.83,-12.121 l 0,-110.4997 c 0,-8 4.96,-12.082 14.83,-12.082 l 126.69,0 c 10.14,0 15.06,3.8008 15.06,12.082 l 0,110.4997 z M 3805.57,13.5781 C 3797.31,5.01953 3783.69,0.578125 3766.78,0.578125 l -122.09,0 c -16.55,0 -29.9,4.152345 -38.16,12.999975 -8.26,8.25 -11.69,22.4024 -11.69,42.4532 l 0,77.7307 c 0,19.539 2.77,34.297 11.1,43.16 8.25,8.547 21.84,12.687 38.75,12.687 l 122.09,0 c 16.59,0 29.58,-3.847 37.87,-12.687 8.36,-8.293 12.02,-22.973 12.02,-43.16 l 0,-77.7307 c 0,-19.4415 -2.77,-33.6329 -11.1,-42.4532" /><path
         id="path4233"
         style="fill:#231f20;fill-opacity:1;fill-rule:nonzero;stroke:none"
         d="m 4039.68,146.172 c 0,13.359 -5.56,16.566 -16.38,16.566 l -123.95,0 0,-70.3161 c 0,0 106.12,0 124.22,0 10.81,0 16.11,5.3398 16.11,16.8081 l 0,36.942 z M 4044.59,0.578125 4011.91,62.25 l -112.56,0 0,-61.671875 -32.69,0 0,189.030875 158.2,0 c 22.47,0 51.06,-7.089 51.06,-46.14 l 0,-33.27 c 0,-16.8904 -8,-36.1287 -30.43,-43.7888 l 36.24,-65.832075 -37.14,0" /><path
         id="path4235"
         style="fill:#231f20;fill-opacity:1;fill-rule:nonzero;stroke:none"
         d="m 4318.47,0.578125 c -38.46,0 -58.2,15.351575 -58.2,50.140675 l 0,88.6602 c 0,34.859 19.74,50.23 58.2,50.23 l 124.6,0 0,-28.089 -134.15,0 c -11.66,0 -15.34,-5.571 -15.34,-18.899 l 0,-95.3827 c 0,-13.2774 3.68,-18.8672 15.34,-18.8672 l 134.15,0 0,-27.792975 -124.6,0" /><path
         id="path4237"
         style="fill:#231f20;fill-opacity:1;fill-rule:nonzero;stroke:none"
         d="m 4594.62,157.422 -47.64,-96.0626 95.62,0 -47.98,96.0626 z m 79.39,-157.14075 -16.9,33.36715 -124.24,0 -17.28,-33.36715 -33.8,0 94.66,189.32775 36.98,0 94.46,-189.32775 -33.88,0" /><path
         id="path4239"
         style="fill:#231f20;fill-opacity:1;fill-rule:nonzero;stroke:none"
         d="m 4924.01,0.578125 0,142.042875 c 0,14.219 -4.93,19.231 -20,19.231 l -124.55,-0.332 0,-160.941875 -32.6,0 0,189.030875 162.09,0 c 38.13,0 48.37,-17.418 48.37,-50.507 l 0,-138.523875 -33.31,0" /><path
         id="path4241"
         style="fill:#231f20;fill-opacity:1;fill-rule:nonzero;stroke:none"
         d="m 5065.46,0.578125 c -38.39,0 -58.08,15.351575 -58.08,50.140675 l 0,88.6602 c 0,34.859 19.69,50.23 58.08,50.23 l 124.64,0 0,-28.089 -134.19,0 c -11.62,0 -15.32,-5.571 -15.32,-18.899 l 0,-95.3827 c 0,-13.2774 3.7,-18.8672 15.32,-18.8672 l 134.19,0 0,-27.792975 -124.64,0" /><path
         id="path4243"
         style="fill:#231f20;fill-opacity:1;fill-rule:nonzero;stroke:none"
         d="m 5282.97,0.578125 c -29.86,0 -41.93,17.691375 -41.93,41.941375 l 0,105.1095 c 0,23.98 12.3,41.98 41.93,41.98 l 141.16,0 c 0,-8.277 0,-27.168 0,-27.168 l -136.61,0 c -9.18,0 -13.2,-6.211 -13.2,-15.101 l 0,-34.289 138.38,0 0,-30.3713 -138.38,0 0,-40.7578 c 0,-10.1016 4.95,-14.1836 16.65,-14.1836 l 133.16,0 0,-27.160175 -141.16,0" /><path
         id="path4245"
         style="fill:#231f20;fill-opacity:1;fill-rule:nonzero;stroke:none"
         d="m 5647.05,146.172 c 0,13.359 -5.51,16.566 -16.25,16.566 l -124,0 0,-70.3161 c 0,0 106.15,0 124.29,0 10.78,0 15.96,5.3398 15.96,16.8081 l 0,36.942 z M 5651.97,0.578125 5619.36,62.25 l -112.56,0 0,-61.671875 -32.59,0 0,189.030875 158.1,0 c 22.48,0 51.05,-7.089 51.05,-46.14 l 0,-33.27 c 0,-16.8904 -7.96,-36.1287 -30.46,-43.7888 l 36.35,-65.832075 -37.28,0" /><path
         id="path4247"
         style="fill:#231f20;fill-opacity:1;fill-rule:nonzero;stroke:none"
         d="m 6041.59,146.172 c 0,13.359 -5.55,16.566 -16.25,16.566 l -124.04,0 0,-70.3161 c 0,0 106.19,0 124.3,0 10.71,0 15.99,5.3398 15.99,16.8081 l 0,36.942 z M 6046.54,0.578125 6013.93,62.25 l -112.63,0 0,-61.671875 -32.62,0 0,189.030875 158.18,0 c 22.41,0 51.08,-7.089 51.08,-46.14 l 0,-33.27 c 0,-16.8904 -8.03,-36.1287 -30.54,-43.7888 l 36.35,-65.832075 -37.21,0" /><path
         id="path4249"
         style="fill:#231f20;fill-opacity:1;fill-rule:nonzero;stroke:none"
         d="m 6169.19,0.578125 c -29.89,0 -41.82,17.691375 -41.82,41.941375 l 0,105.1095 c 0,23.98 12.25,41.98 41.82,41.98 l 141.2,0 c 0,-8.277 0,-27.168 0,-27.168 l -136.52,0 c -9.26,0 -13.32,-6.211 -13.32,-15.101 l 0,-34.289 138.45,0 0,-30.3713 -138.45,0 0,-40.7578 c 0,-10.1016 4.95,-14.1836 16.64,-14.1836 l 133.2,0 0,-27.160175 -141.2,0" /><path
         id="path4251"
         style="fill:#231f20;fill-opacity:1;fill-rule:nonzero;stroke:none"
         d="m 6498.92,0 -133.53,0 0,28.6484 130.79,0 c 15.62,0 28.8,12.3829 28.8,27.1016 0,15.0703 -12.59,26.0391 -28.22,26.332 l -86.43,0 c -30.5,0 -56.97,20.367 -56.97,54.637 0,29.601 24.28,52.601 54.79,52.601 l 131.64,0 0,-27.8 -129.14,0 c -14.52,0 -25.01,-11.508 -25.01,-25.391 0,-13.879 10.85,-23.66 25.3,-23.66 l 86.17,-0.239 c 31.64,0 59.33,-21.5503 59.33,-56.7808 C 6556.44,25.0703 6530.5,0 6498.92,0" /><path
         id="path4253"
         style="fill:#231f20;fill-opacity:1;fill-rule:nonzero;stroke:none"
         d="m 6641.19,0.578125 c -29.83,0 -41.74,17.691375 -41.74,41.941375 l 0,105.1095 c 0,23.98 12.27,41.98 41.74,41.98 l 141.21,0 c 0,-8.277 0,-27.168 0,-27.168 l -136.52,0 c -9.28,0 -13.28,-6.211 -13.28,-15.101 l 0,-34.289 138.47,0 0,-30.3713 -138.47,0 0,-40.7578 c 0,-10.1016 4.96,-14.1836 16.63,-14.1836 l 133.17,0 0,-27.160175 -141.21,0" /><path
         id="path4255"
         style="fill:#231f20;fill-opacity:1;fill-rule:nonzero;stroke:none"
         d="m 6932.22,157.422 -47.76,-96.0626 95.74,0 -47.98,96.0626 z m 79.33,-157.14075 -16.92,33.36715 -124.34,0 -17.19,-33.36715 -33.78,0 94.79,189.32775 36.85,0 94.43,-189.32775 -33.84,0" /><path
         id="path4257"
         style="fill:#231f20;fill-opacity:1;fill-rule:nonzero;stroke:none"
         d="m 7256.02,146.172 c 0,13.359 -5.52,16.566 -16.28,16.566 l -123.98,0 0,-70.3161 c 0,0 106.19,0 124.3,0 10.77,0 15.96,5.3398 15.96,16.8081 l 0,36.942 z M 7260.95,0.578125 7228.36,62.25 l -112.6,0 0,-61.671875 -32.59,0 0,189.030875 158.12,0 c 22.49,0 51.08,-7.089 51.08,-46.14 l 0,-33.27 c 0,-16.8904 -8.06,-36.1287 -30.48,-43.7888 l 36.29,-65.832075 -37.23,0" /><path
         id="path4259"
         style="fill:#231f20;fill-opacity:1;fill-rule:nonzero;stroke:none"
         d="m 7400.01,0.578125 c -38.49,0 -58.17,15.351575 -58.17,50.140675 l 0,88.6602 c 0,34.859 19.68,50.23 58.17,50.23 l 124.54,0 0,-28.089 -134.09,0 c -11.73,0 -15.42,-5.571 -15.42,-18.899 l 0,-95.3827 c 0,-13.2774 3.69,-18.8672 15.42,-18.8672 l 134.09,0 0,-27.792975 -124.54,0" /><path
         id="path4261"
         style="fill:#231f20;fill-opacity:1;fill-rule:nonzero;stroke:none"
         d="m 7762.57,0.578125 0,82.972675 -149.84,0 0,-82.972675 -32.55,0 0,189.030875 32.55,0 0,-75.937 149.84,0 0,75.937 32.92,0 0,-189.030875 -32.92,0" /></g></g></svg>